<?xml version="1.0" encoding="utf-8"?>
<!-- Generator: Adobe Illustrator 22.1.0, SVG Export Plug-In . SVG Version: 6.00 Build 0)  -->
<svg version="1.1" id="Layer_1" xmlns="http://www.w3.org/2000/svg" xmlns:xlink="http://www.w3.org/1999/xlink" x="0px" y="0px"
	 viewBox="0 0 2000 2000" style="enable-background:new 0 0 2000 2000;" xml:space="preserve">
<style type="text/css">
	.st0{fill:url(#SVGID_1_);}
	.st1{fill:url(#SVGID_2_);}
	.st2{fill:url(#SVGID_3_);}
	.st3{fill:#0A7CC9;}
	.st4{fill:#9C24D3;}
	.st5{fill:#FFFFFF;}
</style>
<g>
	<g id="_x23_020288ff">
		<radialGradient id="SVGID_1_" cx="1000" cy="805.3206" r="754.2123" gradientUnits="userSpaceOnUse">
			<stop  offset="0" style="stop-color:#9C24D3"/>
			<stop  offset="1" style="stop-color:#0A7CC9"/>
		</radialGradient>
		<path class="st0" d="M954.2,354.1h91.6c15.2,1.3,27.7,13.7,30.9,28.4c2.8,14.3,4.8,28.7,7.3,43c41.8,9.5,82,26.1,118.2,49
			c11.7-8.1,23.1-16.7,34.9-24.8c13.1-8.9,32.4-8.8,43.9,2.6c20.8,20.6,41.5,41.3,62.1,62.1c11.2,11.3,11.5,30,3.2,43
			c-8.1,12.2-17,23.8-25.3,35.9c22.9,36.2,39.5,76.4,49,118.1c14.3,2.6,28.8,4.4,43.1,7.4c14.6,3.2,27,15.7,28.3,30.8v92.1
			c-1.7,14.4-13.2,26.5-27.1,29.9c-14.6,3.3-29.6,5-44.3,7.7c-9.6,41.8-26.1,81.9-49,118.2c7.9,11.3,16.2,22.5,24.1,33.8
			c6.9,9.9,9.3,23.2,4.8,34.5c-2.1,5.5-6,10-10.1,14c-19.6,19.5-39,39.1-58.7,58.6c-11.6,11.5-30.9,11.6-44,2.7
			c-11.8-8-23.2-16.7-34.9-24.8c-36.2,22.9-76.4,39.5-118.2,49c-2.5,14.3-4.6,28.7-7.4,43c-3.1,14.3-15.1,26.4-29.8,28.4h-93.3
			c-14.9-1.7-27.1-13.9-30.2-28.3c-2.8-14.3-4.9-28.8-7.4-43.1c-41.7-9.7-82-26.1-118.2-49c-11.7,8.2-23.1,16.7-34.9,24.7
			c-13.1,8.9-32.5,8.9-44.1-2.6c-18.4-18.3-36.7-36.8-55.1-55.1c-4.9-4.9-10.4-9.7-13.2-16.3c-5-11.2-3-24.6,3.6-34.6
			c8-11.9,16.9-23.2,24.8-35.2c-23.1-36-39.4-76.3-49-117.9c-14-2.4-28-4.6-41.9-7.1c-15.1-2.8-28.1-15.4-29.5-31V749
			c1.8-15.2,14.4-27.4,29.1-30.3c14.1-2.6,28.2-4.7,42.3-7.2c9.5-41.8,26.1-82,49-118.2c-8.2-11.7-16.7-23.1-24.7-34.9
			c-8.9-13.1-8.9-32.5,2.6-44c18.6-18.7,37.4-37.3,56-56.1c4.8-4.9,9.8-10.2,16.4-12.7c11.4-4.6,24.8-2.1,34.8,4.8
			c11.3,7.9,22.5,16,33.7,24c36.3-22.9,76.5-39.4,118.2-49c2.5-14.4,4.6-28.9,7.4-43.2C926.6,367.8,939,355.5,954.2,354.1
			 M957.2,388.8c-3.4,18.2-6,36.5-9.3,54.7c-1.3,7.3-7.8,12.8-15.1,13.8c-44.4,8.7-87,26.4-124.6,51.7c-5.9,4.4-14.6,5.1-20.7,0.6
			c-15.1-10.6-29.8-21.5-45-31.9c-20.3,20.1-40.5,40.1-60.5,60.5c10.4,15.2,21.4,30,32,45.1c4.4,6.1,3.7,14.7-0.8,20.6
			c-25.2,37.6-42.9,80.2-51.6,124.7c-1.1,7.2-6.5,13.6-13.7,14.9c-18.2,3.4-36.6,5.9-54.8,9.3c-0.1,28.5-0.3,57,0.1,85.6
			c18.2,3.3,36.6,5.9,54.8,9.3c7.2,1.4,12.6,7.8,13.6,14.9c8.7,44.5,26.4,87.1,51.7,124.8c4.4,5.9,5,14.4,0.7,20.5
			c-10.5,15.1-21.5,30-32,45.1c20,20.3,40.2,40.5,60.5,60.5c15.5-10.6,30.6-22,46.1-32.6c6.9-4.5,15.7-2.1,21.7,2.6
			c37,24.6,79,41.7,122.6,50.3c7.2,1.1,13.6,6.4,14.9,13.7c3.3,18.2,5.9,36.6,9.3,54.8c28.5,0.2,57,0.2,85.5,0
			c3.3-18.2,6-36.5,9.3-54.7c1.3-7.3,7.8-12.8,14.9-13.8c44.5-8.7,87.1-26.4,124.7-51.6c5.9-4.5,14.5-5.2,20.6-0.8
			c15.1,10.5,29.9,21.5,45,32c20.5-19.9,40.6-40.1,60.6-60.5c-10.5-15.1-21.4-29.9-32-44.9c-3.5-5-4.1-12-1.2-17.4
			c1.7-3.3,3.9-6.4,5.9-9.6c23.1-36,39.2-76.4,47.6-118.3c1-7.2,6.4-13.7,13.8-15c18.2-3.3,36.6-5.9,54.8-9.3
			c0.2-28.5,0.2-57,0-85.5c-18.2-3.4-36.6-6.1-54.8-9.3c-7.3-1.3-12.7-7.8-13.7-15c-8.7-44.5-26.4-87.1-51.7-124.7
			c-4.4-5.9-5.1-14.4-0.7-20.5c10.6-15.1,21.4-29.9,32-45c-19.9-20.4-40.2-40.6-60.5-60.6c-15.1,10.5-29.9,21.4-44.9,32
			c-6.1,4.4-14.7,3.8-20.6-0.7c-37.6-25.2-80.2-43-124.6-51.6c-7.2-1-13.8-6.4-15.1-13.7c-3.3-18.2-6-36.6-9.3-54.8
			C1014.3,388.5,985.7,388.6,957.2,388.8z"/>
	</g>
	<g>
		<linearGradient id="SVGID_2_" gradientUnits="userSpaceOnUse" x1="909.5061" y1="837.3656" x2="1167.5061" y2="837.3656">
			<stop  offset="0" style="stop-color:#0A7CC9"/>
			<stop  offset="1" style="stop-color:#9C24D3"/>
		</linearGradient>
		<rect x="966.9" y="795.8" class="st1" width="258" height="83.2"/>
		<g>
			<linearGradient id="SVGID_3_" gradientUnits="userSpaceOnUse" x1="876.9036" y1="991.0704" x2="1126.9036" y2="595.0704">
				<stop  offset="0" style="stop-color:#0A7CC9"/>
				<stop  offset="1" style="stop-color:#9C24D3"/>
			</linearGradient>
			<polygon class="st2" points="1174.2,591.1 922.9,1000 885.9,1000 849.7,959.7 1077.8,591.1 			"/>
		</g>
		<g>
			<polygon class="st3" points="805.3,796.3 922.9,1000 826.5,1000 708.8,796.3 827.3,591.1 923.7,591.1 			"/>
		</g>
		<g>
			<polygon class="st4" points="1291.2,796.3 1173.5,1000 1077.1,1000 1194.7,796.3 1077.8,591.1 1174.2,591.1 			"/>
		</g>
	</g>
</g>
<g>
	<path class="st5" d="M288.1,1424c-12.1,0-23-2.7-33-8.2c-9.9-5.5-17.7-12.9-23.4-22.4c-5.7-9.5-8.5-20-8.5-31.5
		c0-11.5,2.8-22,8.5-31.5c5.7-9.5,13.4-17,23.4-22.4c9.9-5.5,20.9-8.2,33-8.2c16,0,30,4.8,42,14.3l-14.4,20.9
		c-8.9-7-18.1-10.5-27.6-10.5c-10.2,0-18.8,3.6-25.8,10.7c-6.9,7.1-10.4,16-10.4,26.7c0,10.6,3.5,19.5,10.4,26.7
		c6.9,7.1,15.5,10.7,25.8,10.7c5.2,0,10.3-1.1,15.2-3.2c4.9-2.1,9.4-4.9,13.3-8.4l15,20.7C319.6,1418.8,305.1,1424,288.1,1424z"/>
	<path class="st5" d="M345.2,1401.1c-4.3-7.1-6.5-15-6.5-23.5c0-8.6,2.2-16.4,6.5-23.5c4.3-7.1,10.3-12.7,17.9-16.8
		c7.6-4.1,16.1-6.1,25.4-6.1c9.3,0,17.8,2,25.4,6.1c7.6,4.1,13.6,9.7,17.9,16.8c4.3,7.1,6.5,15,6.5,23.5c0,8.6-2.2,16.4-6.5,23.5
		c-4.3,7.1-10.3,12.7-17.9,16.8c-7.6,4.1-16.1,6.1-25.4,6.1c-9.3,0-17.8-2-25.4-6.1C355.5,1413.8,349.5,1408.2,345.2,1401.1z
		 M372.5,1361.7c-4.3,4.3-6.4,9.6-6.4,15.9c0,6.3,2.1,11.6,6.4,15.9c4.3,4.3,9.6,6.4,15.9,6.4c6.3,0,11.7-2.1,15.9-6.4
		c4.3-4.3,6.4-9.6,6.4-15.9c0-6.3-2.1-11.6-6.4-15.9c-4.3-4.3-9.6-6.4-15.9-6.4C382.1,1355.2,376.8,1357.4,372.5,1361.7z"/>
	<path class="st5" d="M454.2,1333.1h27.6v9.2c2.7-3.4,6-6.1,9.9-8c3.9-1.9,8.2-2.9,12.9-2.9c6.1,0,11.5,1.3,16.4,3.8
		s8.8,6.1,11.8,10.8c3-4.5,7.1-8.1,12.1-10.8c5.1-2.7,10.4-4.1,16.2-4.1c9.9,0,18.1,3.3,24.6,9.9c6.4,6.6,9.6,15,9.6,25.2v55.8
		h-27.6v-52c0-4-1.3-7.4-3.8-10.3c-2.5-2.9-5.9-4.3-10-4.3c-3,0-5.9,1-8.7,2.9s-5,4.4-6.8,7.5c0.1,1.5,0.1,4.1,0.1,7.5v48.8h-27.6
		v-52c0-4.2-1.3-7.7-3.8-10.5c-2.5-2.8-5.9-4.2-10-4.2c-3,0-5.9,1-8.6,2.9c-2.7,1.9-5,4.4-6.7,7.3v56.5h-27.6V1333.1z"/>
	<path class="st5" d="M642.2,1413.7v48h-27.1v-128.6h27.1v8.2c3.4-3.3,7.5-5.8,12.1-7.6c4.7-1.8,9.5-2.7,14.6-2.7
		c8.1,0,15.4,2.1,22,6.2c6.6,4.1,11.8,9.8,15.6,16.9c3.7,7.1,5.6,14.9,5.6,23.4c0,8.5-1.9,16.2-5.6,23.4
		c-3.7,7.1-8.9,12.7-15.6,16.9c-6.6,4.1-14,6.2-22,6.2c-5.1,0-10-0.9-14.6-2.7C649.7,1419.5,645.6,1417,642.2,1413.7z M662.4,1399.8
		c6.4,0,11.7-2.1,16-6.4c4.3-4.3,6.4-9.6,6.4-15.9c0-6.3-2.1-11.6-6.4-15.9c-4.3-4.3-9.6-6.4-16-6.4c-4.5,0-8.5,1.1-12.1,3.4
		c-3.6,2.3-6.3,5.3-8.1,9.1v19.6c1.8,3.8,4.5,6.8,8.1,9C653.9,1398.7,657.9,1399.8,662.4,1399.8z"/>
	<path class="st5" d="M784.6,1421.9v-9.2c-2.7,3.4-6.1,6.2-10.2,8.2c-4.1,2-8.5,3-13.1,3c-10.1,0-18.4-3.3-25-9.9
		c-6.5-6.6-9.8-15-9.8-25.3v-55.6h27.6v51.9c0,4.1,1.3,7.5,4,10.4c2.7,2.9,6.3,4.3,10.8,4.3c3.1,0,6.1-1,8.9-2.9
		c2.9-1.9,5.1-4.3,6.8-7.1v-56.7h27.6v88.8H784.6z"/>
	<path class="st5" d="M867,1357v32.8c0,3.5,0.9,6.2,2.7,7.8c1.8,1.7,4.7,2.5,8.7,2.5c3.7,0,6.7-0.2,9.1-0.5v22.5
		c-3.8,1.2-8.8,1.8-15.2,1.8c-10.4,0-18.5-2.7-24.3-8.2c-5.8-5.5-8.7-13.2-8.7-23.1V1357h-12.9v-23.8h12.9v-23.3l27.6-2.4v25.7h19.5
		v23.8H867z"/>
	<path class="st5" d="M924.6,1385.2c0.9,5.6,3.4,10,7.5,13.2c4.1,3.2,9.2,4.8,15.2,4.8c8.7,0,16.7-3.5,24-10.5l14.9,15.2
		c-9.9,10.7-23,16.1-39.3,16.1c-9.7,0-18.3-2.1-26-6.2c-7.7-4.1-13.6-9.7-17.8-16.8c-4.2-7.1-6.3-14.9-6.3-23.5
		c0-6.4,1.2-12.5,3.7-18.2c2.5-5.7,5.9-10.7,10.2-14.8c4.3-4.1,9.5-7.4,15.5-9.8c6-2.4,12.4-3.6,19.2-3.6c13.4,0,24.6,4.4,33.6,13.1
		c8.9,8.7,13.4,19.4,13.4,31.9c0,3.2-0.4,6.2-1.3,9.1H924.6z M957.9,1356.1c-3.4-2.8-7.6-4.2-12.6-4.2c-5,0-9.3,1.4-12.9,4.2
		c-3.6,2.8-6,6.7-7.3,11.7h39.5C963.5,1362.8,961.2,1358.9,957.9,1356.1z"/>
	<path class="st5" d="M1054.3,1355.2c-3.7,0-7.2,1.1-10.3,3.3c-3.2,2.2-5.8,5.2-7.8,9v54.4h-27.6v-88.8h27.6v10.5
		c2.5-3.8,5.5-6.8,9.3-9.1c3.7-2.3,7.8-3.4,12.2-3.4c3,0,5.7,0.7,8.1,2.1l-1.7,24C1060.6,1355.9,1057.4,1355.2,1054.3,1355.2z"/>
	<path class="st5" d="M1128.9,1404.8l15.3-19c4.2,4.4,8.9,7.9,14.1,10.5c5.2,2.6,10.4,3.9,15.6,3.9c4.6,0,8.5-1.1,11.7-3.4
		c3.1-2.3,4.7-5.2,4.7-8.8c0-1.8-0.3-3.5-1-4.9c-0.7-1.5-1.8-2.9-3.4-4.3c-1.6-1.4-3.9-2.7-6.9-3.9s-6.7-2.3-11.1-3.2
		c-11.5-2.5-20.5-6.8-26.8-12.9c-6.3-6.1-9.5-13.8-9.5-22.8c0-10.3,3.8-18.9,11.5-25.7c7.7-6.8,17.4-10.2,29.3-10.2
		c7.8,0,15.2,1.3,22.2,4c6.9,2.7,13,6.4,18.3,11.2l-14.4,19.7c-8.9-7.7-17.1-11.5-24.9-11.5c-3.8,0-6.9,1-9.5,2.9
		c-2.6,1.9-3.9,4.4-3.9,7.3c0,3.5,1.5,6.5,4.6,9c3.1,2.5,8.4,4.5,15.9,6.3c25.5,5.9,38.2,18.5,38.2,37.7c0,10.9-4.1,19.9-12.3,26.9
		c-8.2,7-19.1,10.5-32.7,10.5c-9,0-17.4-1.7-25.2-5.1C1141.1,1415.6,1134.4,1410.8,1128.9,1404.8z"/>
	<path class="st5" d="M1279.5,1424c-9.3,0-17.8-2-25.4-6.1c-7.6-4.1-13.6-9.7-17.9-16.8c-4.3-7.1-6.5-15-6.5-23.5
		c0-8.6,2.2-16.4,6.5-23.5s10.3-12.7,17.9-16.8c7.6-4.1,16.1-6.1,25.4-6.1c13.4,0,24.9,4.1,34.4,12.4l-13.1,20
		c-6.9-5.5-13.8-8.2-20.9-8.2c-6.3,0-11.7,2.1-15.9,6.4c-4.3,4.3-6.4,9.6-6.4,15.9c0,6.3,2.1,11.6,6.4,15.9
		c4.3,4.3,9.6,6.4,15.9,6.4c7.3,0,14.5-3,21.6-9.1l14.7,18.6c-4.6,4.6-10,8.2-16.3,10.8C1293.7,1422.7,1286.9,1424,1279.5,1424z"/>
	<path class="st5" d="M1334,1320.6c-3-2.9-4.5-6.4-4.5-10.7c0-4.2,1.5-7.8,4.5-10.7c3-2.9,6.8-4.3,11.2-4.3s8.2,1.4,11.2,4.3
		c3,2.9,4.5,6.4,4.5,10.7c0,4.2-1.5,7.8-4.5,10.7c-3,2.9-6.8,4.3-11.2,4.3S1337,1323.5,1334,1320.6z M1331.4,1421.9v-88.8h27.6v88.8
		H1331.4z"/>
	<path class="st5" d="M1402.8,1385.2c0.9,5.6,3.4,10,7.5,13.2c4.1,3.2,9.2,4.8,15.2,4.8c8.7,0,16.7-3.5,24-10.5l14.9,15.2
		c-9.9,10.7-23,16.1-39.3,16.1c-9.7,0-18.3-2.1-26-6.2c-7.7-4.1-13.6-9.7-17.8-16.8c-4.2-7.1-6.3-14.9-6.3-23.5
		c0-6.4,1.2-12.5,3.7-18.2c2.5-5.7,5.9-10.7,10.2-14.8c4.3-4.1,9.5-7.4,15.5-9.8c6-2.4,12.4-3.6,19.2-3.6c13.4,0,24.6,4.4,33.6,13.1
		c8.9,8.7,13.4,19.4,13.4,31.9c0,3.2-0.4,6.2-1.3,9.1H1402.8z M1436,1356.1c-3.4-2.8-7.6-4.2-12.6-4.2c-5,0-9.3,1.4-12.9,4.2
		c-3.6,2.8-6,6.7-7.3,11.7h39.5C1441.6,1362.8,1439.4,1358.9,1436,1356.1z"/>
	<path class="st5" d="M1514.4,1365.3v56.7h-27.6v-88.8h27.6v9.2c2.7-3.4,6.1-6.2,10.2-8.2c4.1-2,8.5-3,13.1-3
		c10.1,0,18.4,3.3,25,9.9c6.5,6.6,9.8,15,9.8,25.3v55.6h-27.6V1370c0-4.1-1.3-7.5-4-10.4c-2.7-2.9-6.3-4.3-10.8-4.3
		c-3.1,0-6.1,1-8.9,2.9C1518.3,1360.1,1516,1362.5,1514.4,1365.3z"/>
	<path class="st5" d="M1636.5,1424c-9.3,0-17.8-2-25.4-6.1c-7.6-4.1-13.6-9.7-17.9-16.8c-4.3-7.1-6.5-15-6.5-23.5
		c0-8.6,2.2-16.4,6.5-23.5c4.3-7.1,10.3-12.7,17.9-16.8c7.6-4.1,16.1-6.1,25.4-6.1c13.4,0,24.9,4.1,34.4,12.4l-13.1,20
		c-6.9-5.5-13.8-8.2-20.9-8.2c-6.3,0-11.7,2.1-15.9,6.4c-4.3,4.3-6.4,9.6-6.4,15.9c0,6.3,2.1,11.6,6.4,15.9
		c4.3,4.3,9.6,6.4,15.9,6.4c7.3,0,14.5-3,21.6-9.1l14.7,18.6c-4.6,4.6-10,8.2-16.3,10.8C1650.6,1422.7,1643.8,1424,1636.5,1424z"/>
	<path class="st5" d="M1708.7,1385.2c0.9,5.6,3.4,10,7.5,13.2c4.1,3.2,9.2,4.8,15.2,4.8c8.7,0,16.7-3.5,24-10.5l14.9,15.2
		c-9.9,10.7-23,16.1-39.3,16.1c-9.7,0-18.3-2.1-26-6.2c-7.7-4.1-13.6-9.7-17.8-16.8c-4.2-7.1-6.3-14.9-6.3-23.5
		c0-6.4,1.2-12.5,3.7-18.2c2.5-5.7,5.9-10.7,10.2-14.8c4.3-4.1,9.5-7.4,15.5-9.8c6-2.4,12.4-3.6,19.2-3.6c13.4,0,24.6,4.4,33.6,13.1
		c8.9,8.7,13.4,19.4,13.4,31.9c0,3.2-0.4,6.2-1.3,9.1H1708.7z M1741.9,1356.1c-3.4-2.8-7.6-4.2-12.6-4.2s-9.3,1.4-12.9,4.2
		c-3.6,2.8-6,6.7-7.3,11.7h39.5C1747.5,1362.8,1745.3,1358.9,1741.9,1356.1z"/>
	<path class="st5" d="M495.3,1528.2l-23.8,10c-1.5-3.9-3.2-6.8-5.1-8.7c-1.9-1.8-4.3-2.7-7.2-2.7c-2.7,0-4.9,0.9-6.8,2.6
		c-1.8,1.7-2.7,3.8-2.7,6.3c0,2.7,1.1,5.8,3.3,9.3c2.2,3.4,6,7.7,11.4,12.9l24.9,23.9c2.3-5.4,3.8-11.5,4.6-18.3l25.4,3.6
		c-1.4,12.6-5,23.8-10.9,33.4l28,27.1h-34.2l-9.9-9.4c-10,7.7-21.5,11.5-34.6,11.5c-12.5,0-22.9-3.2-31.2-9.6
		c-8.3-6.4-12.4-14.5-12.4-24.1c0-13.8,6.8-25.2,20.5-34.4c-4.3-4.9-7.3-9.3-9-13.2c-1.7-3.9-2.5-8-2.5-12.4
		c0-8.6,3.5-15.8,10.4-21.6c6.9-5.8,15.4-8.7,25.5-8.7c8.7,0,16.2,2,22.5,6C487.9,1515.7,492.5,1521.2,495.3,1528.2z M457.7,1607.9
		c6.5,0,12.4-2.1,17.7-6.3l-24.7-23.7c-6.5,4.8-9.7,10.2-9.7,16.2c0,3.9,1.5,7.2,4.6,9.9C448.7,1606.6,452.7,1607.9,457.7,1607.9z"
		/>
	<path class="st5" d="M629.7,1507.6h31.2l41.7,120h-29.7l-7.8-25h-39.6l-7.8,25H588L629.7,1507.6z M658.6,1580.3l-13.3-42.9
		l-13.3,42.9H658.6z"/>
	<path class="st5" d="M769.5,1627.6v-9.2c-2.7,3.4-6.1,6.2-10.2,8.2c-4.1,2-8.5,3-13.1,3c-10.1,0-18.4-3.3-25-9.9
		c-6.5-6.6-9.8-15-9.8-25.3v-55.6H739v51.9c0,4.1,1.3,7.5,4,10.4c2.7,2.9,6.3,4.3,10.8,4.3c3.1,0,6.1-1,8.9-2.9
		c2.9-1.9,5.1-4.3,6.8-7.1v-56.7h27.6v88.8H769.5z"/>
	<path class="st5" d="M851.9,1562.7v32.8c0,3.5,0.9,6.2,2.7,7.8c1.8,1.7,4.7,2.5,8.7,2.5c3.7,0,6.7-0.2,9.1-0.5v22.5
		c-3.8,1.2-8.8,1.8-15.2,1.8c-10.4,0-18.5-2.7-24.3-8.2c-5.8-5.5-8.7-13.2-8.7-23.1v-35.7h-12.9v-23.8h12.9v-23.3l27.6-2.4v25.7
		h19.5v23.8H851.9z"/>
	<path class="st5" d="M888.3,1606.8c-4.3-7.1-6.5-15-6.5-23.5c0-8.6,2.2-16.4,6.5-23.5c4.3-7.1,10.3-12.7,17.9-16.8
		c7.6-4.1,16.1-6.1,25.4-6.1c9.3,0,17.8,2,25.4,6.1c7.6,4.1,13.6,9.7,17.9,16.8c4.3,7.1,6.5,15,6.5,23.5c0,8.6-2.2,16.4-6.5,23.5
		c-4.3,7.1-10.3,12.7-17.9,16.8c-7.6,4.1-16.1,6.1-25.4,6.1c-9.3,0-17.8-2-25.4-6.1C898.6,1619.5,892.6,1613.9,888.3,1606.8z
		 M915.6,1567.4c-4.3,4.3-6.4,9.6-6.4,15.9c0,6.3,2.1,11.6,6.4,15.9c4.3,4.3,9.6,6.4,15.9,6.4c6.3,0,11.7-2.1,15.9-6.4
		c4.3-4.3,6.4-9.6,6.4-15.9c0-6.3-2.1-11.6-6.4-15.9c-4.3-4.3-9.6-6.4-15.9-6.4C925.2,1561,919.9,1563.1,915.6,1567.4z"/>
	<path class="st5" d="M997.3,1538.8h27.6v9.2c2.7-3.4,6-6.1,9.9-8c3.9-1.9,8.2-2.9,12.9-2.9c6.1,0,11.5,1.3,16.4,3.8
		c4.9,2.5,8.8,6.1,11.8,10.8c3-4.5,7.1-8.1,12.1-10.8c5.1-2.7,10.4-4.1,16.2-4.1c9.9,0,18.1,3.3,24.6,9.9c6.4,6.6,9.6,15,9.6,25.2
		v55.8h-27.6v-52c0-4-1.3-7.4-3.8-10.3c-2.5-2.9-5.9-4.3-10-4.3c-3,0-5.9,1-8.7,2.9c-2.7,1.9-5,4.4-6.8,7.5c0.1,1.5,0.1,4.1,0.1,7.5
		v48.8H1054v-52c0-4.2-1.3-7.7-3.8-10.5c-2.5-2.8-5.9-4.2-10-4.2c-3,0-5.9,1-8.6,2.9c-2.7,1.9-5,4.4-6.7,7.3v56.5h-27.6V1538.8z"/>
	<path class="st5" d="M1222.6,1627.6v-8.2c-3.4,3.3-7.5,5.8-12.1,7.6c-4.7,1.8-9.5,2.7-14.6,2.7c-8.1,0-15.4-2.1-22-6.2
		c-6.6-4.1-11.8-9.8-15.6-16.9c-3.7-7.1-5.6-14.9-5.6-23.4c0-8.5,1.9-16.2,5.6-23.4c3.7-7.1,8.9-12.7,15.6-16.9
		c6.6-4.1,14-6.2,22-6.2c5.1,0,10,0.9,14.6,2.7c4.7,1.8,8.7,4.3,12.1,7.6v-8.2h27.1v88.8H1222.6z M1202.4,1605.5
		c4.5,0,8.6-1.1,12.2-3.4s6.3-5.3,8.1-9v-19.6c-1.8-3.8-4.5-6.8-8.1-9.1c-3.6-2.3-7.7-3.4-12.1-3.4c-6.3,0-11.7,2.1-15.9,6.4
		c-4.3,4.3-6.4,9.6-6.4,15.9c0,6.3,2.1,11.6,6.4,15.9C1190.7,1603.4,1196.1,1605.5,1202.4,1605.5z"/>
	<path class="st5" d="M1303.7,1562.7v32.8c0,3.5,0.9,6.2,2.7,7.8c1.8,1.7,4.7,2.5,8.7,2.5c3.7,0,6.7-0.2,9.1-0.5v22.5
		c-3.8,1.2-8.8,1.8-15.2,1.8c-10.4,0-18.5-2.7-24.3-8.2c-5.8-5.5-8.7-13.2-8.7-23.1v-35.7h-12.9v-23.8h12.9v-23.3l27.6-2.4v25.7
		h19.5v23.8H1303.7z"/>
	<path class="st5" d="M1341.8,1526.3c-3-2.9-4.5-6.4-4.5-10.7c0-4.2,1.5-7.8,4.5-10.7s6.8-4.3,11.2-4.3c4.5,0,8.2,1.4,11.2,4.3
		c3,2.9,4.5,6.4,4.5,10.7c0,4.2-1.5,7.8-4.5,10.7c-3,2.9-6.8,4.3-11.2,4.3C1348.6,1530.6,1344.9,1529.2,1341.8,1526.3z
		 M1339.3,1627.6v-88.8h27.6v88.8H1339.3z"/>
	<path class="st5" d="M1389.5,1606.8c-4.3-7.1-6.5-15-6.5-23.5c0-8.6,2.2-16.4,6.5-23.5c4.3-7.1,10.3-12.7,17.9-16.8
		c7.6-4.1,16.1-6.1,25.4-6.1s17.8,2,25.4,6.1c7.6,4.1,13.6,9.7,17.9,16.8c4.3,7.1,6.5,15,6.5,23.5c0,8.6-2.2,16.4-6.5,23.5
		c-4.3,7.1-10.3,12.7-17.9,16.8c-7.6,4.1-16.1,6.1-25.4,6.1s-17.8-2-25.4-6.1C1399.7,1619.5,1393.8,1613.9,1389.5,1606.8z
		 M1416.8,1567.4c-4.3,4.3-6.4,9.6-6.4,15.9c0,6.3,2.1,11.6,6.4,15.9c4.3,4.3,9.6,6.4,15.9,6.4s11.7-2.1,15.9-6.4
		c4.3-4.3,6.4-9.6,6.4-15.9c0-6.3-2.1-11.6-6.4-15.9c-4.3-4.3-9.6-6.4-15.9-6.4S1421,1563.1,1416.8,1567.4z"/>
	<path class="st5" d="M1526,1571v56.7h-27.6v-88.8h27.6v9.2c2.7-3.4,6.1-6.2,10.2-8.2c4.1-2,8.5-3,13.1-3c10.1,0,18.4,3.3,25,9.9
		c6.5,6.6,9.8,15,9.8,25.3v55.6h-27.6v-51.9c0-4.1-1.3-7.5-4-10.4c-2.7-2.9-6.3-4.3-10.8-4.3c-3.1,0-6.1,1-8.9,2.9
		C1529.9,1565.8,1527.7,1568.2,1526,1571z"/>
</g>
</svg>
